<?xml version="1.0" encoding="UTF-8"?>
<svg xmlns="http://www.w3.org/2000/svg" xmlns:xlink="http://www.w3.org/1999/xlink" width="297pt" height="42pt" viewBox="0 0 297 42" version="1.1">
<g id="surface1">
<path style=" stroke:none;fill-rule:nonzero;fill:#666666;fill-opacity:1;" d="M 236.699219 7.886719 C 236.632812 8.167969 235.285156 13.921875 233.71875 20.695312 C 232.152344 27.46875 230.824219 33.132812 230.78125 33.285156 C 230.691406 33.503906 230.910156 33.546875 231.585938 33.503906 L 232.5 33.4375 L 233.019531 31 L 233.566406 28.539062 L 236.242188 26.46875 C 237.699219 25.335938 238.984375 24.398438 239.09375 24.398438 C 239.179688 24.398438 240.398438 26.46875 241.769531 28.972656 L 244.273438 33.546875 L 246.121094 33.546875 L 245.707031 32.742188 C 245.492188 32.285156 244.25 29.996094 242.964844 27.664062 C 241.703125 25.335938 240.636719 23.351562 240.617188 23.265625 C 240.59375 23.199219 242.597656 21.542969 245.097656 19.628906 C 247.578125 17.6875 249.605469 16.054688 249.605469 16.011719 C 249.605469 15.945312 249.082031 15.902344 248.429688 15.902344 L 247.230469 15.902344 L 242.160156 19.867188 C 239.375 22.046875 236.480469 24.3125 235.71875 24.898438 C 234.957031 25.488281 234.328125 25.945312 234.285156 25.902344 C 234.261719 25.859375 235.175781 21.742188 236.351562 16.773438 C 237.527344 11.808594 238.484375 7.667969 238.484375 7.558594 C 238.503906 7.472656 238.113281 7.40625 237.65625 7.40625 C 236.960938 7.40625 236.785156 7.492188 236.699219 7.886719 Z M 236.699219 7.886719 "/>
<path style=" stroke:none;fill-rule:nonzero;fill:#666666;fill-opacity:1;" d="M 60.605469 8.191406 C 56.320312 9.105469 52.597656 12.328125 50.769531 16.664062 C 49.769531 19.019531 49.375 22.589844 49.8125 24.964844 C 50.574219 28.972656 53.359375 32.152344 57.058594 33.222656 C 59.015625 33.808594 62.105469 33.765625 64.085938 33.15625 C 65.914062 32.609375 67.875 31.457031 69.15625 30.214844 C 70.160156 29.234375 70.222656 29.34375 69.746094 31.152344 C 69.265625 32.960938 69.289062 33.113281 70.179688 33.113281 C 70.789062 33.113281 70.964844 33.003906 71.050781 32.609375 C 72.074219 28.539062 73.902344 20.324219 73.835938 20.195312 C 73.792969 20.105469 71.355469 20.042969 68.460938 20.042969 L 63.152344 20.042969 L 63.019531 20.519531 C 62.671875 21.847656 62.476562 21.785156 67.351562 21.785156 C 72.421875 21.785156 72.09375 21.632812 71.464844 23.765625 C 69.746094 29.625 63.980469 33.070312 58.148438 31.695312 C 56.320312 31.261719 55.316406 30.714844 54.097656 29.496094 C 52.292969 27.710938 51.574219 25.726562 51.574219 22.523438 C 51.574219 18.625 52.792969 15.53125 55.382812 12.960938 C 57.710938 10.628906 60.257812 9.585938 63.585938 9.585938 C 67.960938 9.585938 71.378906 12.222656 72.117188 16.164062 C 72.269531 16.949219 72.3125 16.992188 73.117188 16.992188 C 73.96875 16.992188 73.96875 16.992188 73.859375 16.273438 C 72.769531 10.109375 67.308594 6.773438 60.605469 8.191406 Z M 60.605469 8.191406 "/>
<path style=" stroke:none;fill-rule:nonzero;fill:#666666;fill-opacity:1;" d="M 148 9.300781 C 147.542969 11.066406 142.539062 32.851562 142.539062 33.089844 C 142.539062 33.308594 143.996094 33.351562 148.695312 33.285156 C 154.441406 33.222656 154.917969 33.175781 156.269531 32.699219 C 159.730469 31.5 161.578125 28.996094 161.558594 25.597656 C 161.558594 23.636719 160.359375 21.71875 158.835938 21.238281 C 158.421875 21.109375 158.554688 21 159.664062 20.457031 C 162.949219 18.886719 164.40625 15.554688 163.210938 12.351562 C 162.425781 10.238281 160.707031 9.085938 157.75 8.714844 C 156.746094 8.605469 154.203125 8.496094 152.070312 8.496094 L 148.21875 8.496094 Z M 157.726562 10.457031 C 160.230469 10.804688 161.511719 11.871094 161.816406 13.832031 C 162.1875 16.382812 160.644531 18.757812 158.097656 19.519531 C 156.988281 19.867188 156.09375 19.933594 152.15625 19.890625 C 149.589844 19.867188 147.476562 19.824219 147.433594 19.78125 C 147.390625 19.757812 147.867188 17.578125 148.476562 14.964844 L 149.589844 10.238281 L 152.960938 10.238281 C 154.832031 10.238281 156.964844 10.347656 157.726562 10.457031 Z M 157.140625 22.089844 C 159.226562 22.851562 160.140625 24.574219 159.707031 26.902344 C 159.359375 28.734375 158.511719 29.84375 156.8125 30.714844 L 155.3125 31.476562 L 150.023438 31.542969 C 145.953125 31.609375 144.714844 31.566406 144.714844 31.347656 C 144.714844 31.21875 145.214844 28.996094 145.800781 26.425781 C 146.410156 23.855469 146.890625 21.695312 146.890625 21.632812 C 146.890625 21.566406 148.980469 21.566406 151.523438 21.632812 C 155.027344 21.71875 156.378906 21.828125 157.140625 22.089844 Z M 157.140625 22.089844 "/>
<path style=" stroke:none;fill-rule:nonzero;fill:#666666;fill-opacity:1;" d="M 175.765625 7.667969 C 175.703125 7.953125 174.351562 13.703125 172.785156 20.476562 C 171.21875 27.253906 169.890625 32.914062 169.847656 33.070312 C 169.761719 33.285156 169.980469 33.328125 170.632812 33.285156 L 171.546875 33.222656 L 174.546875 20.257812 C 176.222656 13.136719 177.574219 7.296875 177.574219 7.253906 C 177.574219 7.210938 177.179688 7.1875 176.722656 7.1875 C 176.027344 7.1875 175.855469 7.277344 175.765625 7.667969 Z M 175.765625 7.667969 "/>
<path style=" stroke:none;fill-rule:nonzero;fill:#666666;fill-opacity:1;" d="M 190.71875 15.46875 C 188.28125 15.792969 186.539062 16.816406 185.320312 18.582031 C 184.90625 19.214844 184.492188 19.976562 184.40625 20.304688 C 184.277344 20.890625 184.296875 20.914062 185.144531 20.914062 C 185.972656 20.914062 186.058594 20.847656 186.496094 19.933594 C 187.476562 17.90625 189.324219 16.992188 192.347656 16.992188 C 195.742188 17.011719 197.027344 18.058594 196.898438 20.738281 C 196.855469 21.542969 196.746094 22.261719 196.679688 22.351562 C 196.59375 22.414062 194.875 22.675781 192.871094 22.894531 C 186.886719 23.570312 185.296875 24.027344 183.621094 25.660156 C 181.578125 27.621094 181.707031 31.0625 183.863281 32.632812 C 185.058594 33.503906 186.605469 33.851562 188.648438 33.699219 C 190.78125 33.546875 192.414062 32.914062 193.785156 31.738281 L 194.875 30.78125 L 194.808594 32.042969 L 194.722656 33.328125 L 196.246094 33.328125 L 196.398438 32.066406 C 196.460938 31.390625 197.027344 28.691406 197.617188 26.097656 C 198.746094 21.109375 198.855469 20.105469 198.421875 18.648438 C 197.703125 16.25 194.570312 14.964844 190.71875 15.46875 Z M 196.15625 24.769531 C 195.417969 28.101562 194.480469 29.671875 192.457031 31 C 189.847656 32.71875 185.449219 32.523438 184.296875 30.628906 C 183.078125 28.625 184.582031 25.988281 187.367188 25.269531 C 188.496094 24.964844 194.003906 24.246094 195.375 24.203125 C 196.265625 24.179688 196.289062 24.203125 196.15625 24.769531 Z M 196.15625 24.769531 "/>
<path style=" stroke:none;fill-rule:nonzero;fill:#666666;fill-opacity:1;" d="M 85.085938 15.53125 C 85.085938 15.574219 84.542969 17.90625 83.847656 20.71875 C 82.78125 25.183594 82.628906 26.097656 82.605469 28.144531 C 82.585938 30.390625 82.605469 30.496094 83.238281 31.414062 C 83.605469 31.914062 84.347656 32.589844 84.871094 32.894531 C 85.71875 33.375 86.109375 33.4375 87.917969 33.4375 C 90.351562 33.4375 91.417969 33.046875 93.050781 31.542969 C 94.054688 30.628906 94.074219 30.605469 93.921875 31.238281 C 93.445312 33.15625 93.445312 33.113281 94.359375 33.113281 L 95.207031 33.113281 L 97.144531 24.769531 C 98.210938 20.195312 99.125 16.230469 99.1875 15.945312 C 99.277344 15.53125 99.1875 15.46875 98.515625 15.46875 C 98.078125 15.46875 97.6875 15.554688 97.621094 15.664062 C 97.554688 15.75 96.925781 18.296875 96.207031 21.304688 C 95.488281 24.3125 94.664062 27.273438 94.359375 27.925781 C 93.226562 30.300781 91.246094 31.738281 88.765625 31.957031 C 85.328125 32.285156 83.671875 30.476562 84.238281 27.035156 C 84.390625 25.988281 85.433594 21.390625 86.71875 15.945312 C 86.828125 15.511719 86.761719 15.46875 85.957031 15.46875 C 85.480469 15.46875 85.085938 15.511719 85.085938 15.53125 Z M 85.085938 15.53125 "/>
<path style=" stroke:none;fill-rule:nonzero;fill:#666666;fill-opacity:1;" d="M 215.265625 15.683594 C 212.585938 16.078125 209.539062 18.363281 208.277344 20.957031 C 206.363281 24.855469 206.753906 29.125 209.234375 31.78125 C 210.5 33.132812 212 33.808594 214.046875 33.941406 C 217.917969 34.203125 221.292969 32.242188 223.078125 28.710938 L 223.707031 27.449219 L 222.773438 27.449219 C 221.859375 27.449219 221.792969 27.492188 221.402344 28.339844 C 220.050781 31.347656 216.179688 33.089844 212.914062 32.132812 C 209.0625 31.019531 207.667969 25.902344 209.996094 21.347656 C 210.671875 20.042969 212.21875 18.582031 213.652344 17.90625 C 214.71875 17.40625 215.175781 17.320312 216.875 17.320312 C 218.679688 17.320312 218.921875 17.363281 219.898438 17.972656 C 221.183594 18.777344 221.683594 19.429688 222.183594 20.933594 C 222.554688 22.046875 222.640625 22.109375 223.359375 22.175781 C 224.078125 22.242188 224.144531 22.199219 224.144531 21.695312 C 224.144531 20.5625 223.25 18.734375 222.183594 17.644531 C 220.53125 16.011719 218.007812 15.292969 215.265625 15.683594 Z M 215.265625 15.683594 "/>
<path style=" stroke:none;fill-rule:nonzero;fill:#666666;fill-opacity:1;" d="M 107.589844 16.273438 C 107.652344 16.621094 108.414062 20.542969 109.242188 25.007812 L 110.789062 33.132812 L 109.65625 34.921875 C 109.023438 35.902344 107.9375 37.554688 107.242188 38.601562 L 105.957031 40.519531 L 107 40.519531 L 108.046875 40.496094 L 116.164062 28.230469 C 120.601562 21.5 124.257812 15.902344 124.257812 15.816406 C 124.257812 15.726562 123.84375 15.683594 123.34375 15.726562 L 122.429688 15.792969 L 117.292969 23.59375 C 114.488281 27.882812 112.160156 31.304688 112.136719 31.21875 C 112.113281 31.109375 111.484375 27.796875 110.765625 23.855469 C 110.046875 19.890625 109.417969 16.445312 109.351562 16.164062 C 109.242188 15.773438 109.089844 15.683594 108.351562 15.683594 C 107.5 15.683594 107.480469 15.707031 107.589844 16.273438 Z M 107.589844 16.273438 "/>
</g>
</svg>
